<?xml version="1.0" encoding="utf-8"?>
<!-- Generator: Adobe Illustrator 19.1.0, SVG Export Plug-In . SVG Version: 6.00 Build 0)  -->
<svg version="1.1" id="Lager_1" xmlns="http://www.w3.org/2000/svg" xmlns:xlink="http://www.w3.org/1999/xlink" x="0px" y="0px"
	 viewBox="0 0 100 45" style="enable-background:new 0 0 100 45;" xml:space="preserve">
<style type="text/css">
	.st0{fill:#4285F4;}
	.st1{fill:#EA4335;}
	.st2{fill:#8B8B8B;}
</style>
<g>
	<path class="st0" d="M75,25.6c2.3,0,4.1-1.8,4.1-4.1l0-8.2c0-2.3-1.8-4.1-4.1-4.1s-4.1,1.8-4.1,4.1v8.2
		C70.9,23.8,72.7,25.6,75,25.6z M82.2,21.6c0,4.1-3.5,6.9-7.2,6.9c-3.8,0-7.2-2.9-7.2-6.9h-2.3c0,4.6,3.7,8.5,8.2,9.1v4.5h2.7v-4.5
		c4.5-0.7,8.2-4.5,8.2-9.1H82.2z"/>
	<path class="st1" d="M76.3,30.7c4.5-0.7,8.2-4.5,8.2-9.1h-2.3c0,4.1-3.5,6.9-7.2,6.9c-3.8,0-7.2-2.9-7.2-6.9h-2.3
		c0,4.6,3.7,8.5,8.2,9.1"/>
</g>
<path class="st2" d="M48.5,12.7H26.7c-1.5,0-2.7,1.2-2.7,2.7L24,29c0,1.5,1.2,2.7,2.7,2.7h21.8c1.5,0,2.7-1.2,2.7-2.7V15.5
	C51.2,14,50,12.7,48.5,12.7z M36.2,16.8H39v2.7h-2.7V16.8z M36.2,20.9H39v2.7h-2.7V20.9z M32.2,16.8h2.7v2.7h-2.7V16.8z M32.2,20.9
	h2.7v2.7h-2.7V20.9z M30.8,23.6h-2.7v-2.7h2.7V23.6z M30.8,19.5h-2.7v-2.7h2.7V19.5z M43,29H32.2v-2.7H43V29z M43,23.6h-2.7v-2.7H43
	V23.6z M43,19.5h-2.7v-2.7H43V19.5z M47.1,23.6h-2.7v-2.7h2.7V23.6z M47.1,19.5h-2.7v-2.7h2.7V19.5z"/>
</svg>
